HIERARCHY
ROOT RootJoint
{
    OFFSET   0.000000   0.000000   0.000000
    CHANNELS 6 Xposition Yposition Zposition Xrotation Yrotation Zrotation
    JOINT pelvis_lowerback
    {
        OFFSET   0.000000   0.093605   0.000000
        CHANNELS 3 Xrotation Yrotation Zrotation
        JOINT lowerback_torso
        {
            OFFSET   0.000000   0.100000   0.000000
            CHANNELS 3 Xrotation Yrotation Zrotation
            JOINT torso_head
            {
                OFFSET   0.000000   0.282350   0.000000
                CHANNELS 3 Xrotation Yrotation Zrotation
                End Site
                {
                    OFFSET   0.000000   0.192650   0.000000
                }
            }
            JOINT rTorso_Clavicle
            {
                OFFSET  -0.001000   0.157500   0.000000
                CHANNELS 3 Xrotation Yrotation Zrotation
                JOINT rShoulder
                {
                    OFFSET  -0.117647   0.000000   0.000000
                    CHANNELS 3 Xrotation Yrotation Zrotation
                    JOINT rElbow
                    {
                        OFFSET  -0.245000   0.000000   0.000000
                        CHANNELS 3 Xrotation Yrotation Zrotation
                        JOINT rWrist
                        {
                            OFFSET  -0.240000   0.000000   0.000000
                            CHANNELS 3 Xrotation Yrotation Zrotation
                            End Site
                            {
                                OFFSET  -0.116353  -0.002500   0.000000
                            }
                        }
                    }
                }
            }
            JOINT lTorso_Clavicle
            {
                OFFSET   0.001000   0.157500   0.000000
                CHANNELS 3 Xrotation Yrotation Zrotation
                JOINT lShoulder
                {
                    OFFSET   0.117647   0.000000   0.000000
                    CHANNELS 3 Xrotation Yrotation Zrotation
                    JOINT lElbow
                    {
                        OFFSET   0.245000   0.000000   0.000000
                        CHANNELS 3 Xrotation Yrotation Zrotation
                        JOINT lWrist
                        {
                            OFFSET   0.240000   0.000000   0.000000
                            CHANNELS 3 Xrotation Yrotation Zrotation
                            End Site
                            {
                                OFFSET   0.116353  -0.002500   0.000000
                            }
                        }
                    }
                }
            }
        }
    }
    JOINT rHip
    {
        OFFSET  -0.100000  -0.051395   0.000000
        CHANNELS 3 Xrotation Yrotation Zrotation
        JOINT rKnee
        {
            OFFSET   0.000000  -0.410000   0.000000
            CHANNELS 3 Xrotation Yrotation Zrotation
            JOINT rAnkle
            {
                OFFSET   0.000000  -0.390000   0.000000
                CHANNELS 3 Xrotation Yrotation Zrotation
                JOINT rToeJoint
                {
                    OFFSET   0.000000  -0.050000   0.130000
                    CHANNELS 3 Xrotation Yrotation Zrotation
                    End Site
                    {
                        OFFSET  -0.010000   0.002000   0.060000
                    }
                }
            }
        }
    }
    JOINT lHip
    {
        OFFSET   0.100000  -0.051395   0.000000
        CHANNELS 3 Xrotation Yrotation Zrotation
        JOINT lKnee
        {
            OFFSET   0.000000  -0.410000   0.000000
            CHANNELS 3 Xrotation Yrotation Zrotation
            JOINT lAnkle
            {
                OFFSET   0.000000  -0.390000   0.000000
                CHANNELS 3 Xrotation Yrotation Zrotation
                JOINT lToeJoint
                {
                    OFFSET   0.000000  -0.050000   0.130000
                    CHANNELS 3 Xrotation Yrotation Zrotation
                    End Site
                    {
                        OFFSET   0.010000   0.002000   0.060000
                    }
                }
            }
        }
    }
}
MOTION
Frames: 5
Frame Time:   0.008333
 -3.256759   0.581085   4.765958 -155.949198   2.672329 175.451208  42.712296   2.949944  -0.881057  -3.656672  -0.547465   1.205473  -5.466921   1.962792  -4.204223   1.046053  19.959382  -8.215652  11.172595  26.263619  26.340009   0.019654  68.309206  -0.020685  14.051309   4.659547  -7.006051  -1.762458 -22.910638   6.885208  19.797484 -27.141675 -22.434550   0.013861 -77.444647   0.010388  11.208434  -7.827530   8.869666 -47.112955  -5.402021 -12.303139 103.124068   0.000096   0.000311 -42.464754  -5.086784   1.317630   0.659299   0.000006  -0.000018 -44.348974   3.966372  16.376599 110.452313  -0.001604  -0.000253 -49.164522   0.934829   3.437500  -3.562517   0.000071   0.000508
 -3.257752   0.580563   4.767362 -155.899181   2.674206 175.298241  42.623688   2.981967  -0.804828  -3.768476  -0.580945   1.251814  -5.527892   2.041867  -4.155333   1.058478  19.901934  -8.111965  11.021178  26.280394  26.474350   0.019224  67.809340  -0.020579  14.133489   4.673143  -7.098316  -1.780663 -22.940969   6.842480  19.744078 -27.249897 -22.476716   0.013452 -77.079567   0.010150  11.216422  -7.859135   8.902572 -47.201689  -5.476017 -12.304714 103.070401   0.000087   0.000292 -42.360006  -5.033288   1.464026   0.654098   0.000009  -0.000014 -43.784767   4.003781  16.425563 110.325572  -0.001256  -0.000184 -49.611927   0.897936   3.458939  -3.558766   0.000056   0.000404
 -3.258807   0.579887   4.768863 -155.875492   2.658881 175.111877  42.521037   3.021950  -0.694703  -3.873784  -0.608024   1.312500  -5.585515   2.117297  -4.106871   1.076008  19.842303  -8.016765  10.885148  26.290378  26.601465   0.018317  67.334612  -0.019949  14.206459   4.642775  -7.175853  -1.790596 -22.962492   6.797114  19.696858 -27.352845 -22.525611   0.012552 -76.739299   0.009505  11.224165  -7.881792   8.939011 -47.330677  -5.574872 -12.284771 103.025990   0.000073   0.000265 -42.261242  -4.986497   1.607341   0.653746   0.000008  -0.000011 -43.217320   4.040898  16.486612 109.972931  -0.001009  -0.000069 -50.030586   0.863678   3.478641  -3.524393   0.000048   0.000311
 -3.259942   0.579000   4.770424 -155.858459   2.626866 174.904031  42.419967   3.061642  -0.566352  -3.971476  -0.632472   1.386134  -5.638838   2.187827  -4.058709   1.094941  19.781850  -7.929862  10.761133  26.296279  26.720183   0.017150  66.890038  -0.018971  14.274608   4.601619  -7.241509  -1.796035 -22.978071   6.755939  19.655568 -27.448061 -22.573705   0.011462 -76.422628   0.008678  11.231031  -7.906777   8.966709 -47.485858  -5.685149 -12.256642 103.004321   0.000057   0.000226 -42.167426  -4.944999   1.745623   0.652688   0.000007  -0.000009 -42.658873   4.081018  16.548700 109.557866  -0.000905   0.000089 -50.421293   0.831520   3.496701  -3.479651   0.000053   0.000240
 -3.261158   0.577894   4.772034 -155.839358   2.577822 174.680806  42.327467   3.098812  -0.427794  -4.060229  -0.656164   1.469108  -5.688278   2.253558  -4.011491   1.114208  19.722235  -7.848868  10.647113  26.299459  26.831319   0.015839  66.474242  -0.017760  14.339157   4.557625  -7.300541  -1.799696 -22.990469   6.719381  19.618453 -27.535700 -22.618660   0.010357 -76.127155   0.007829  11.237080  -7.931910   8.988078 -47.659080  -5.800109 -12.224779 103.008360   0.000047   0.000179 -42.077184  -4.907900   1.878210   0.651352   0.000007  -0.000007 -42.115199   4.124653  16.607272 109.139315  -0.000915   0.000272 -50.785687   0.801319   3.513284  -3.432950   0.000068   0.000188
